<svg xmlns="http://www.w3.org/2000/svg" width="51.041" height="50"><g data-name="001-user"><g data-name="Сгруппировать 3665"><g data-name="Сгруппировать 3664"><path data-name="Контур 335" d="M44.432 6.612V0h-3.306v6.612h-6.614v3.306h6.612v6.612h3.308V9.917h6.612V6.612z" fill="#ff1ca2"/></g></g><g data-name="Сгруппировать 3667"><g data-name="Сгруппировать 3666"><path data-name="Контур 336" d="M38.446 36.794a22.331 22.331 0 002.678-10.347 11.57 11.57 0 00-9.917-11.438v-.133a11.57 11.57 0 00-23.14 0 22.33 22.33 0 002.661 10.314A15.322 15.322 0 000 32.942l2.893 1.653a12.215 12.215 0 019.917-6.347 9.322 9.322 0 005.752 3.124 21.7 21.7 0 002.066 5.471A15.719 15.719 0 008.066 49.19l3.306.793A12.661 12.661 0 0122.81 39.766a9.107 9.107 0 006.744 3.207 9.108 9.108 0 006.793-3.207c7.455.727 10.347 5.851 11.438 10.231l3.256-.81a15.719 15.719 0 00-12.595-12.393zM17.983 26.81a7.342 7.342 0 00.1 1.455c-4.182-1.339-6.959-7.686-6.959-13.471a8.587 8.587 0 1117.174 0v.132A12.033 12.033 0 0017.983 26.81zm11.57 13.273v-.05c-5.058 0-8.579-7.24-8.579-13.736a8.579 8.579 0 0117.157 0c.001 6.546-3.519 13.786-8.577 13.786z" fill="#111742"/></g></g></g></svg>