<svg xmlns="http://www.w3.org/2000/svg" width="30.642" height="30.559"><g data-name="005-magic-wand"><path data-name="Контур 351" d="M10.197 13.596a.881.881 0 00.746.646l4.876.581.581 4.876a.881.881 0 001.58.423l2.941-3.932 4.513 1.934a.881.881 0 001.157-1.157l-1.934-4.513 3.932-2.941a.881.881 0 00-.423-1.58l-4.876-.581-.581-4.876a.881.881 0 00-1.58-.423l-2.941 3.932-4.513-1.934a.881.881 0 00-1.157 1.157l1.934 4.513-3.932 2.941a.882.882 0 00-.323.934z" fill="#5faeac"/><path data-name="Контур 352" d="M26.402 5.485l1.245-1.245a.881.881 0 10-1.245-1.245l-1.245 1.248a.881.881 0 001.245 1.245z" fill="#0d37bc"/><path data-name="Контур 353" d="M17.505 3.433a.88.88 0 00.623-1.079l-.456-1.7a.881.881 0 10-1.7.456l.456 1.7a.882.882 0 001.077.623z" fill="#fa6729"/><path data-name="Контур 354" d="M21.608 18.743a.881.881 0 00-.623 1.079l.456 1.7a.881.881 0 001.7-.456l-.456-1.7a.881.881 0 00-1.077-.623z" fill="#ff1ca2"/><path data-name="Контур 355" d="M11.276 7.959l-1.7-.456a.881.881 0 10-.456 1.7l1.7.456a.881.881 0 00.456-1.7z" fill="#ff1ca2"/><path data-name="Контур 356" d="M27.208 13.14a.882.882 0 00.623 1.079l1.7.456a.881.881 0 10.456-1.7l-1.7-.456a.881.881 0 00-1.079.621z" fill="#fa6729"/><path data-name="Контур 357" d="M2.083 29.8a.88.88 0 001.245 0l11.167-11.166-.265-2.225-2.225-.265L.841 27.31a.88.88 0 000 1.245z" fill="none" stroke="#12183f" opacity=".2"/></g></svg>