<svg data-name="001-instagram" xmlns="http://www.w3.org/2000/svg" width="18" height="18"><path data-name="Контур 298" d="M12.638 0H5.362A5.368 5.368 0 000 5.362v7.275A5.368 5.368 0 005.362 18h7.275A5.368 5.368 0 0018 12.638V5.362A5.368 5.368 0 0012.638 0zm3.552 12.638a3.552 3.552 0 01-3.552 3.551H5.362a3.552 3.552 0 01-3.551-3.551V5.362a3.551 3.551 0 013.551-3.551h7.275a3.551 3.551 0 013.551 3.551v7.275z" fill="#111742"/><path data-name="Контур 299" d="M9 4.345A4.655 4.655 0 1013.655 9 4.661 4.661 0 009 4.345zm0 7.5A2.845 2.845 0 1111.845 9 2.845 2.845 0 019 11.845z" fill="#111742"/><circle data-name="Эллипс 44" cx="1.116" cy="1.116" r="1.116" transform="translate(12.549 3.264)" fill="#111742"/></svg>