<svg data-name="Сгруппировать 3901" xmlns="http://www.w3.org/2000/svg" width="34" height="18.308"><path data-name="Контур 9" d="M10.462 1.308a1.308 1.308 0 01-1.308 1.308 1.308 1.308 0 01-1.308-1.308A1.308 1.308 0 019.154 0a1.308 1.308 0 011.308 1.308zM3.923 5.231a1.308 1.308 0 00-1.308 1.308 1.308 1.308 0 001.308 1.308 1.308 1.308 0 001.308-1.308 1.308 1.308 0 00-1.308-1.308zm2.615 5.231A1.308 1.308 0 005.23 11.77a1.308 1.308 0 001.308 1.308 1.308 1.308 0 001.308-1.308 1.308 1.308 0 00-1.307-1.308zm-5.231 5.231A1.308 1.308 0 000 17a1.308 1.308 0 001.308 1.308A1.308 1.308 0 002.616 17a1.308 1.308 0 00-1.308-1.308zM34 9.154a9.154 9.154 0 01-9.154 9.154H5.231a1.308 1.308 0 110-2.615h10.462a1.308 1.308 0 100-2.615h-5.231a1.308 1.308 0 110-2.615h2.615a1.308 1.308 0 100-2.615H7.846a1.308 1.308 0 010-2.615h7.846a1.308 1.308 0 100-2.615h-2.615a1.308 1.308 0 010-2.615h11.769A9.154 9.154 0 0134 9.154zm-5.036-2l.828-2.946-1.709 1.709a4.569 4.569 0 10.881 1.237z" fill="#ff1ca2"/><path data-name="Контур 10" d="M29.791 4.208l-5.674 3.859h-.006l-.009.006a1.307 1.307 0 101.834 1.8z" fill="#ff1ca2"/></svg>