<svg xmlns="http://www.w3.org/2000/svg" width="19.692" height="16"><g data-name="003-twitter"><g data-name="Сгруппировать 552"><path data-name="Контур 302" d="M19.692 1.894a8.417 8.417 0 01-2.326.638A4.014 4.014 0 0019.142.3a8.068 8.068 0 01-2.56.977A4.037 4.037 0 009.6 4.038a4.157 4.157 0 00.094.921A11.427 11.427 0 011.373.736a4.038 4.038 0 001.241 5.4 3.987 3.987 0 01-1.824-.5v.044a4.056 4.056 0 003.234 3.967 4.029 4.029 0 01-1.058.133 3.57 3.57 0 01-.766-.07 4.076 4.076 0 003.772 2.812 8.112 8.112 0 01-5.006 1.722A7.562 7.562 0 010 14.188 11.366 11.366 0 006.193 16a11.411 11.411 0 0011.49-11.488c0-.178-.006-.351-.015-.522a8.054 8.054 0 002.024-2.096z" fill="#111742"/></g></g></svg>