<svg data-name="004-add" xmlns="http://www.w3.org/2000/svg" width="44.042" height="43.75"><path data-name="Контур 344" d="M18.792 43.75H5.208A5.214 5.214 0 010 38.542V5.208A5.214 5.214 0 015.208 0h25a5.214 5.214 0 015.208 5.208v12.625a1.042 1.042 0 11-2.083 0V5.208a3.129 3.129 0 00-3.125-3.125h-25a3.129 3.129 0 00-3.125 3.125v33.334a3.129 3.129 0 003.125 3.125h13.584a1.042 1.042 0 010 2.083z" fill="#111742"/><path data-name="Контур 345" d="M28.125 18.75H7.292a1.042 1.042 0 010-2.083h20.833a1.042 1.042 0 110 2.083z" fill="#ff1ca2"/><path data-name="Контур 346" d="M19.792 27.083h-12.5a1.042 1.042 0 110-2.083h12.5a1.042 1.042 0 010 2.083z" fill="#111742"/><path data-name="Контур 347" d="M17.708 10.416H7.292a1.042 1.042 0 110-2.083h10.416a1.042 1.042 0 110 2.083z" fill="#ff1ca2"/><path data-name="Контур 362" d="M37.433 33.612V27h-3.306v6.612h-6.614v3.306h6.612v6.612h3.308v-6.613h6.612v-3.305z" fill="#111742"/></svg>