<svg data-name="002-log-in" xmlns="http://www.w3.org/2000/svg" width="50" height="50"><path data-name="Контур 337" d="M45.467.031c-.052 0-.1-.031-.15-.031h-22.4a6.258 6.258 0 00-6.25 6.25v2.083a2.083 2.083 0 104.167 0V6.25a2.087 2.087 0 012.083-2.083h9.706l-.635.213a4.188 4.188 0 00-2.821 3.953v31.25h-6.25a2.087 2.087 0 01-2.083-2.083v-4.167a2.083 2.083 0 10-4.167 0V37.5a6.258 6.258 0 006.25 6.25h6.25v2.083A4.171 4.171 0 0033.334 50a4.379 4.379 0 001.327-.206l12.516-4.173A4.187 4.187 0 0050 41.667v-37.5A4.174 4.174 0 0045.467.031z" fill="#111742"/><path data-name="Контур 338" d="M22.306 19.36l-8.333-8.333a2.083 2.083 0 00-3.556 1.473v6.25H2.083a2.083 2.083 0 100 4.167h8.333v6.25a2.083 2.083 0 003.556 1.473l8.333-8.333a2.081 2.081 0 000-2.946z" fill="#ff1ca2"/></svg>