<svg xmlns="http://www.w3.org/2000/svg" width="80.001" height="80.001"><path d="M40.001 80a39.749 39.749 0 01-15.57-3.144 39.887 39.887 0 01-12.716-8.572 39.887 39.887 0 01-8.572-12.716A39.749 39.749 0 01.001 40a39.741 39.741 0 013.144-15.569 39.877 39.877 0 018.572-12.715 39.879 39.879 0 0112.716-8.571A39.749 39.749 0 0140.001 0 39.741 39.741 0 0155.57 3.144a39.864 39.864 0 0112.715 8.571 39.864 39.864 0 018.571 12.715A39.741 39.741 0 0180.001 40a39.749 39.749 0 01-3.144 15.57 39.879 39.879 0 01-8.571 12.716 39.877 39.877 0 01-12.715 8.572A39.741 39.741 0 0140.001 80zm-4-49.706a3.007 3.007 0 00-3 3v13.4a3.01 3.01 0 003.006 3.006 2.983 2.983 0 001.538-.433l11.17-6.7a2.975 2.975 0 001.455-2.572 2.974 2.974 0 00-1.455-2.571l-11.17-6.7a2.947 2.947 0 00-1.544-.429z" fill="#0d37bc"/></svg>