<svg xmlns="http://www.w3.org/2000/svg" width="146.277" height="19.253"><g data-name="Сгруппировать 3440"><g data-name="Сгруппировать 2"><path data-name="Контур 1" d="M101.899 4.869a7.192 7.192 0 107.192 7.192 7.2 7.2 0 00-7.192-7.192zm0 11.8a4.61 4.61 0 114.609-4.61 4.615 4.615 0 01-4.609 4.612z" fill="#111742"/><path data-name="Контур 2" d="M120.376 13.16a3.51 3.51 0 01-7.019 0V5.078h-2.582v8.082a6.092 6.092 0 0012.184 0V5.078h-2.582z" fill="#111742"/><path data-name="Контур 3" d="M131.142 4.926a6.1 6.1 0 00-6.092 6.092V19.1h2.582v-8.082a3.51 3.51 0 017.019 0V19.1h2.582v-8.082a6.1 6.1 0 00-6.091-6.092z" fill="#111742"/><path data-name="Контур 4" d="M44.583 11.018V19.1h2.586v-8.082a3.514 3.514 0 013.51-3.51V4.926a6.1 6.1 0 00-6.096 6.092z" fill="#111742"/><path data-name="Контур 5" d="M142.768 13.004V7.558h3.1V5.073h-3.1V.004h-2.582v5.078h-2.112v2.485h2.112v5.437a6.1 6.1 0 006.092 6.1v-2.582a3.514 3.514 0 01-3.51-3.518z" fill="#111742"/><path data-name="Контур 6" d="M58.56 4.869a7.192 7.192 0 106.407 10.453h-3.152a4.607 4.607 0 01-7.707-2.067h11.543A7.193 7.193 0 0058.56 4.87zm-4.424 5.9a4.609 4.609 0 018.848 0z" fill="#111742"/><path data-name="Контур 7" d="M72.586 15.643L68.333 5.078h-2.784l5.645 14.023h2.782l5.646-14.023h-2.784z" fill="#111742"/><g data-name="Сгруппировать 1"><path data-name="Контур 8" d="M86.851 16.671a4.61 4.61 0 113.8-7.215h2.9a7.192 7.192 0 100 5.211h-2.9a4.608 4.608 0 01-3.8 2.004z" fill="#111742"/></g></g><g data-name="Сгруппировать 3" fill="#111742"><path data-name="Контур 9" d="M11 1.375A1.375 1.375 0 019.625 2.75 1.375 1.375 0 018.25 1.375 1.375 1.375 0 019.625 0 1.375 1.375 0 0111 1.375zM4.124 5.501a1.375 1.375 0 00-1.375 1.375 1.375 1.375 0 001.375 1.375 1.375 1.375 0 001.375-1.375 1.375 1.375 0 00-1.373-1.375zm2.75 5.5a1.375 1.375 0 00-1.375 1.375 1.375 1.375 0 001.375 1.375 1.375 1.375 0 001.375-1.375 1.375 1.375 0 00-1.373-1.374zm-5.5 5.5A1.375 1.375 0 000 17.878a1.375 1.375 0 001.375 1.375 1.375 1.375 0 001.375-1.375 1.375 1.375 0 00-1.375-1.375zm34.38-6.876a9.626 9.626 0 01-9.626 9.626H5.5a1.375 1.375 0 110-2.75h11a1.375 1.375 0 100-2.75H11a1.375 1.375 0 010-2.75h2.75a1.375 1.375 0 100-2.75h-5.5a1.375 1.375 0 010-2.75h8.25a1.375 1.375 0 100-2.75h-2.75a1.375 1.375 0 010-2.75h12.377a9.626 9.626 0 019.628 9.625zm-5.3-2.1l.871-3.1-1.8 1.8a4.8 4.8 0 10.927 1.3z"/><path data-name="Контур 10" d="M31.33 4.426l-5.967 4.059h-.006l-.01.007a1.375 1.375 0 101.929 1.888z"/></g></g></svg>