<svg xmlns="http://www.w3.org/2000/svg" width="40.592" height="21.856"><path d="M12.49 1.561a1.561 1.561 0 01-1.561 1.561 1.561 1.561 0 01-1.561-1.561A1.561 1.561 0 0110.929 0a1.561 1.561 0 011.561 1.561zM4.684 6.245a1.561 1.561 0 00-1.561 1.561 1.561 1.561 0 001.561 1.561 1.561 1.561 0 001.561-1.561 1.561 1.561 0 00-1.561-1.561zm3.123 6.245a1.561 1.561 0 00-1.561 1.561 1.561 1.561 0 001.561 1.561 1.561 1.561 0 001.561-1.561 1.561 1.561 0 00-1.562-1.566zm-6.245 6.245A1.561 1.561 0 000 20.296a1.561 1.561 0 001.561 1.561 1.561 1.561 0 001.561-1.561 1.561 1.561 0 00-1.561-1.561zm39.031-7.806a10.929 10.929 0 01-10.929 10.929H6.245a1.561 1.561 0 110-3.122h12.49a1.561 1.561 0 100-3.122H12.49a1.561 1.561 0 010-3.122h3.122a1.561 1.561 0 100-3.122H9.367a1.561 1.561 0 010-3.122h9.367a1.561 1.561 0 100-3.122h-3.122a1.561 1.561 0 010-3.122h14.051a10.929 10.929 0 0110.929 10.925zM34.58 8.541l.988-3.517-2.041 2.041a5.455 5.455 0 101.052 1.476z" fill="#0e0e0e"/><path d="M35.568 5.024l-6.774 4.608h-.007l-.011.008a1.561 1.561 0 102.19 2.143z" fill="#0e0e0e"/></svg>