<svg data-name="002-log-in" xmlns="http://www.w3.org/2000/svg" width="30.059" height="30.059"><path data-name="Контур 337" d="M27.331.019c-.031 0-.058-.019-.09-.019H13.777a3.762 3.762 0 00-3.757 3.757V5.01a1.252 1.252 0 102.5 0V3.757A1.255 1.255 0 0113.777 2.5h5.835l-.382.128a2.518 2.518 0 00-1.7 2.377V23.8h-3.753a1.255 1.255 0 01-1.257-1.256v-2.5a1.252 1.252 0 10-2.5 0v2.5a3.762 3.762 0 003.757 3.756h3.757v1.252a2.507 2.507 0 002.5 2.5 2.632 2.632 0 00.8-.124l7.525-2.509a2.517 2.517 0 001.7-2.377V2.5A2.51 2.51 0 0027.331.019z" fill="#111742" opacity=".2"/><path data-name="Контур 338" d="M13.41 11.639L8.4 6.629a1.252 1.252 0 00-2.138.885v3.758h-5.01a1.252 1.252 0 100 2.5h5.01v3.757a1.252 1.252 0 002.138.885l5.01-5.01a1.251 1.251 0 000-1.771z" fill="#0d37bc"/></svg>