<svg xmlns="http://www.w3.org/2000/svg" width="50.619" height="50.5"><g data-name="005-magic-wand"><path data-name="Контур 351" d="M16.61 22.615a1.465 1.465 0 001.241 1.075l8.11.967.967 8.11a1.465 1.465 0 002.628.7l4.892-6.54 7.506 3.218a1.465 1.465 0 001.924-1.924l-3.218-7.506 6.54-4.892a1.465 1.465 0 00-.7-2.628l-8.11-.967-.967-8.11a1.465 1.465 0 00-2.628-.7l-4.892 6.54-7.51-3.214a1.465 1.465 0 00-1.924 1.924l3.218 7.506-6.54 4.892a1.468 1.468 0 00-.537 1.553z" fill="#ff1ca2"/><path data-name="Контур 352" d="M43.568 9.122L45.64 7.05a1.465 1.465 0 00-2.072-2.072L41.496 7.05a1.465 1.465 0 102.072 2.072z" fill="#0d37bc"/><path data-name="Контур 353" d="M28.762 5.711a1.465 1.465 0 001.036-1.794l-.758-2.83a1.465 1.465 0 10-2.83.759l.758 2.83a1.466 1.466 0 001.795 1.036z" fill="#fa6729"/><path data-name="Контур 354" d="M35.585 31.174a1.465 1.465 0 00-1.036 1.794l.759 2.83a1.465 1.465 0 002.83-.759l-.759-2.83a1.466 1.466 0 00-1.794-1.035z" fill="#ff1ca2"/><path data-name="Контур 355" d="M18.404 13.239l-2.83-.758a1.465 1.465 0 10-.759 2.83l2.83.759a1.465 1.465 0 00.759-2.83z" fill="#ff1ca2"/><path data-name="Контур 356" d="M44.907 21.857a1.467 1.467 0 001.036 1.794l2.83.758a1.465 1.465 0 00.759-2.83l-2.83-.759a1.465 1.465 0 00-1.795 1.037z" fill="#fa6729"/><path data-name="Контур 357" d="M3.118 49.571a1.464 1.464 0 002.072 0l18.575-18.574-.441-3.7-3.7-.441L1.048 45.428a1.464 1.464 0 000 2.072z" fill="none" stroke="#12183f"/></g></svg>