<svg xmlns="http://www.w3.org/2000/svg" width="50" height="50"><g fill="none" stroke="#0f1841" stroke-dasharray="5 6" opacity=".2"><rect width="50" height="50" rx="8" stroke="none"/><rect x=".5" y=".5" width="49" height="49" rx="7.5"/></g><path d="M26.791 20.683H14.266a.626.626 0 010-1.252h12.525a.626.626 0 110 1.252z" fill="#0d37bc"/><path d="M21.781 25.692h-7.515a.626.626 0 110-1.252h7.515a.626.626 0 010 1.252z" fill="#111742" opacity=".2"/><path d="M20.528 15.673h-6.262a.626.626 0 110-1.252h6.262a.626.626 0 110 1.252zm11.857 13.945v-3.975h-1.987v3.975h-3.975v1.985h3.975v3.975h1.987v-3.975h3.975v-1.985z" fill="#0d37bc"/></svg>