<svg xmlns="http://www.w3.org/2000/svg" width="57.145" height="30.77"><defs><linearGradient id="a" y1=".5" x2="1" y2=".5" gradientUnits="objectBoundingBox"><stop offset="0" stop-color="#f701a5"/><stop offset="1" stop-color="#0076ff"/></linearGradient></defs><g data-name="Сгруппировать 3"><path data-name="Контур 9" d="M374.583 131.313a2.2 2.2 0 01-2.2 2.2 2.2 2.2 0 01-2.2-2.2 2.2 2.2 0 012.2-2.2 2.2 2.2 0 012.2 2.2zm-10.989 6.594a2.2 2.2 0 00-2.2 2.2 2.2 2.2 0 002.2 2.2 2.2 2.2 0 002.2-2.2 2.2 2.2 0 00-2.2-2.2zm4.4 8.792a2.2 2.2 0 00-2.2 2.2 2.2 2.2 0 002.2 2.2 2.2 2.2 0 002.2-2.2 2.2 2.2 0 00-2.205-2.199zm-8.794 8.791a2.2 2.2 0 00-2.2 2.2 2.2 2.2 0 002.2 2.2 2.2 2.2 0 002.2-2.2 2.2 2.2 0 00-2.2-2.2zm54.945-10.99a15.385 15.385 0 01-15.385 15.385h-32.968a2.2 2.2 0 010-4.4h17.583a2.2 2.2 0 000-4.4h-8.792a2.2 2.2 0 110-4.4h4.4a2.2 2.2 0 000-4.4h-8.792a2.2 2.2 0 010-4.4h13.187a2.2 2.2 0 000-4.4h-4.4a2.2 2.2 0 010-4.4h19.782a15.385 15.385 0 0115.385 15.415zm-8.464-3.361l1.391-4.951-2.873 2.873a7.679 7.679 0 101.481 2.078z" fill="url(#a)" transform="translate(-357 -129.115)"/><path data-name="Контур 10" d="M50.072 7.073l-9.536 6.486-.01.007-.016.011a2.2 2.2 0 103.083 3.017z" fill="#1b30c0"/></g></svg>