<svg id="_001-instagram" data-name="001-instagram" xmlns="http://www.w3.org/2000/svg" width="18" height="18" viewBox="0 0 18 18">
  <path id="Контур_298" data-name="Контур 298" d="M12.638,0H5.362A5.368,5.368,0,0,0,0,5.362v7.275A5.368,5.368,0,0,0,5.362,18h7.275A5.368,5.368,0,0,0,18,12.638V5.362A5.368,5.368,0,0,0,12.638,0Zm3.552,12.638a3.552,3.552,0,0,1-3.552,3.551H5.362a3.552,3.552,0,0,1-3.551-3.551V5.362A3.551,3.551,0,0,1,5.362,1.811h7.275a3.551,3.551,0,0,1,3.551,3.551v7.275Z" fill="#111742"/>
  <path id="Контур_299" data-name="Контур 299" d="M137.655,133a4.655,4.655,0,1,0,4.655,4.655A4.661,4.661,0,0,0,137.655,133Zm0,7.5a2.845,2.845,0,1,1,2.845-2.845A2.845,2.845,0,0,1,137.655,140.5Z" transform="translate(-128.655 -128.655)" fill="#111742"/>
  <circle id="Эллипс_44" data-name="Эллипс 44" cx="1.116" cy="1.116" r="1.116" transform="translate(12.549 3.264)" fill="#111742"/>
</svg>
