<svg xmlns="http://www.w3.org/2000/svg" width="40.592" height="21.856" viewBox="0 0 40.592 21.856"><path d="M369.49,130.676h0a1.561,1.561,0,0,1-1.561,1.561h0a1.561,1.561,0,0,1-1.561-1.561h0a1.561,1.561,0,0,1,1.561-1.561h0A1.561,1.561,0,0,1,369.49,130.676Zm-7.806,4.684h0a1.561,1.561,0,0,0-1.561,1.561h0a1.561,1.561,0,0,0,1.561,1.561h0a1.561,1.561,0,0,0,1.561-1.561h0A1.561,1.561,0,0,0,361.684,135.36Zm3.123,6.245h0a1.561,1.561,0,0,0-1.561,1.561h0a1.561,1.561,0,0,0,1.561,1.561h0a1.561,1.561,0,0,0,1.561-1.561h0A1.561,1.561,0,0,0,364.806,141.6Zm-6.245,6.245h0A1.561,1.561,0,0,0,357,149.411h0a1.561,1.561,0,0,0,1.561,1.561h0a1.561,1.561,0,0,0,1.561-1.561h0A1.561,1.561,0,0,0,358.561,147.85Zm39.031-7.806a10.929,10.929,0,0,1-10.929,10.929H363.245a1.561,1.561,0,1,1,0-3.122h12.49a1.561,1.561,0,1,0,0-3.122H369.49a1.561,1.561,0,0,1,0-3.122h3.122a1.561,1.561,0,1,0,0-3.122h-6.245a1.561,1.561,0,0,1,0-3.122h9.367a1.561,1.561,0,1,0,0-3.122h-3.122a1.561,1.561,0,0,1,0-3.122h14.051A10.929,10.929,0,0,1,397.592,140.044Zm-6.013-2.388.988-3.517-2.041,2.041a5.455,5.455,0,1,0,1.052,1.476Z" transform="translate(-357 -129.115)" fill="#0e0e0e"/><path d="M562.466,164.514l-6.774,4.608-.007,0-.011.008h0a1.561,1.561,0,1,0,2.19,2.143Z" transform="translate(-526.898 -159.49)" fill="#0e0e0e"/></svg>