<svg xmlns="http://www.w3.org/2000/svg" width="146.277" height="19.253" viewBox="0 0 146.277 19.253">
  <g id="Сгруппировать_3440" data-name="Сгруппировать 3440" transform="translate(-210 10.996)">
    <g id="Сгруппировать_2" data-name="Сгруппировать 2" transform="translate(254.583 -10.996)">
      <path id="Контур_1" data-name="Контур 1" d="M503.7,331.412a7.192,7.192,0,1,0,7.192,7.192A7.2,7.2,0,0,0,503.7,331.412Zm0,11.8a4.61,4.61,0,1,1,4.609-4.61A4.615,4.615,0,0,1,503.7,343.214Z" transform="translate(-446.384 -326.543)" fill="#111742"/>
      <path id="Контур_2" data-name="Контур 2" d="M583.709,340.506a3.51,3.51,0,0,1-7.019,0v-8.082h-2.582v8.082a6.092,6.092,0,0,0,12.184,0v-8.082h-2.582Z" transform="translate(-507.916 -327.346)" fill="#111742"/>
      <path id="Контур_3" data-name="Контур 3" d="M649.15,331.689a6.1,6.1,0,0,0-6.092,6.092v8.082h2.582v-8.082a3.51,3.51,0,0,1,7.019,0v8.082h2.582v-8.082A6.1,6.1,0,0,0,649.15,331.689Z" transform="translate(-562.591 -326.763)" fill="#111742"/>
      <path id="Контур_4" data-name="Контур 4" d="M254.414,337.781v8.082H257v-8.082a3.514,3.514,0,0,1,3.51-3.51v-2.582A6.1,6.1,0,0,0,254.414,337.781Z" transform="translate(-254.414 -326.763)" fill="#111742"/>
      <path id="Контур_5" data-name="Контур 5" d="M710.656,320.9v-5.446h3.1v-2.485h-3.1V307.9h-2.582v5.078h-2.112v2.485h2.112V320.9A6.1,6.1,0,0,0,714.166,327v-2.582A3.514,3.514,0,0,1,710.656,320.9Z" transform="translate(-612.471 -307.896)" fill="#111742"/>
      <path id="Контур_6" data-name="Контур 6" d="M294.379,331.412a7.192,7.192,0,1,0,6.407,10.453h-3.152a4.607,4.607,0,0,1-7.707-2.067H301.47a7.193,7.193,0,0,0-7.091-8.385Zm-4.424,5.9a4.609,4.609,0,0,1,8.848,0Z" transform="translate(-280.402 -326.543)" fill="#111742"/>
      <path id="Контур_7" data-name="Контур 7" d="M362.71,342.988l-4.253-10.565h-2.784l5.645,14.023H364.1l5.646-14.023h-2.784Z" transform="translate(-334.707 -327.345)" fill="#111742"/>
      <g id="Сгруппировать_1" data-name="Сгруппировать 1" transform="translate(35.076 4.869)">
        <path id="Контур_8" data-name="Контур 8" d="M431.018,343.214a4.61,4.61,0,1,1,3.8-7.215h2.9a7.192,7.192,0,1,0,0,5.211h-2.9A4.608,4.608,0,0,1,431.018,343.214Z" transform="translate(-423.826 -331.412)" fill="#111742"/>
      </g>
    </g>
    <g id="Сгруппировать_3" data-name="Сгруппировать 3" transform="translate(210 -10.996)">
      <path id="Контур_9" data-name="Контур 9" d="M368,130.49h0a1.375,1.375,0,0,1-1.375,1.375h0a1.375,1.375,0,0,1-1.375-1.375h0a1.375,1.375,0,0,1,1.375-1.375h0A1.375,1.375,0,0,1,368,130.49Zm-6.876,4.126h0a1.375,1.375,0,0,0-1.375,1.375h0a1.375,1.375,0,0,0,1.375,1.375h0a1.375,1.375,0,0,0,1.375-1.375h0A1.375,1.375,0,0,0,361.126,134.616Zm2.75,5.5h0a1.375,1.375,0,0,0-1.375,1.375h0a1.375,1.375,0,0,0,1.375,1.375h0a1.375,1.375,0,0,0,1.375-1.375h0A1.375,1.375,0,0,0,363.876,140.117Zm-5.5,5.5h0A1.375,1.375,0,0,0,357,146.993h0a1.375,1.375,0,0,0,1.375,1.375h0a1.375,1.375,0,0,0,1.375-1.375h0A1.375,1.375,0,0,0,358.375,145.618Zm34.38-6.876a9.626,9.626,0,0,1-9.626,9.626H362.5a1.375,1.375,0,1,1,0-2.75h11a1.375,1.375,0,1,0,0-2.75H368a1.375,1.375,0,0,1,0-2.75h2.75a1.375,1.375,0,1,0,0-2.75h-5.5a1.375,1.375,0,0,1,0-2.75H373.5a1.375,1.375,0,1,0,0-2.75h-2.75a1.375,1.375,0,0,1,0-2.75h12.377A9.626,9.626,0,0,1,392.755,138.741Zm-5.3-2.1.871-3.1-1.8,1.8a4.8,4.8,0,1,0,.927,1.3Z" transform="translate(-357 -129.115)" fill="#111742"/>
      <path id="Контур_10" data-name="Контур 10" d="M561.576,164.514l-5.967,4.059-.006,0-.01.007h0a1.375,1.375,0,1,0,1.929,1.888Z" transform="translate(-530.246 -160.088)" fill="#111742"/>
    </g>
  </g>
</svg>
