<svg id="_002-log-in" data-name="002-log-in" xmlns="http://www.w3.org/2000/svg" width="30.059" height="30.059" viewBox="0 0 30.059 30.059">
  <path id="Контур_337" data-name="Контур 337" d="M25.311.019c-.031,0-.058-.019-.09-.019H11.757A3.762,3.762,0,0,0,8,3.757V5.01a1.252,1.252,0,1,0,2.5,0V3.757A1.255,1.255,0,0,1,11.757,2.5h5.835l-.382.128a2.518,2.518,0,0,0-1.7,2.377V23.8H11.757A1.255,1.255,0,0,1,10.5,22.544v-2.5a1.252,1.252,0,1,0-2.5,0v2.5A3.762,3.762,0,0,0,11.757,26.3h3.757v1.252a2.507,2.507,0,0,0,2.5,2.5,2.632,2.632,0,0,0,.8-.124l7.525-2.509a2.517,2.517,0,0,0,1.7-2.377V2.5A2.51,2.51,0,0,0,25.311.019Z" transform="translate(2.02)" fill="#111742" opacity="0.2"/>
  <path id="Контур_338" data-name="Контур 338" d="M13.41,10.377,8.4,5.367a1.252,1.252,0,0,0-2.138.885V10.01H1.252a1.252,1.252,0,1,0,0,2.5h5.01v3.757a1.252,1.252,0,0,0,2.138.885l5.01-5.01a1.251,1.251,0,0,0,0-1.771Z" transform="translate(0 1.262)" fill="#0d37bc"/>
</svg>
