<svg xmlns="http://www.w3.org/2000/svg" width="30.642" height="30.559" viewBox="0 0 30.642 30.559">
  <g id="_005-magic-wand" data-name="005-magic-wand" transform="translate(0.583)">
    <path id="Контур_351" data-name="Контур 351" d="M163.269,40.881a.881.881,0,0,0,.746.646l4.876.581.581,4.876a.881.881,0,0,0,1.58.423l2.941-3.932,4.513,1.934a.881.881,0,0,0,1.157-1.157l-1.934-4.513,3.932-2.941a.881.881,0,0,0-.423-1.58l-4.876-.581-.581-4.876a.881.881,0,0,0-1.58-.423l-2.941,3.932-4.513-1.934a.881.881,0,0,0-1.157,1.157l1.934,4.513-3.932,2.941A.882.882,0,0,0,163.269,40.881Z" transform="translate(-153.655 -27.285)" fill="#5faeac"/>
    <path id="Контур_352" data-name="Контур 352" d="M415.693,49.342l1.245-1.245a.881.881,0,1,0-1.245-1.245L414.448,48.1a.881.881,0,0,0,1.245,1.245Z" transform="translate(-389.874 -43.857)" fill="#0d37bc"/>
    <path id="Контур_353" data-name="Контур 353" d="M263.1,3.433a.88.88,0,0,0,.623-1.079l-.456-1.7a.881.881,0,1,0-1.7.456l.456,1.7A.882.882,0,0,0,263.1,3.433Z" transform="translate(-246.178 0)" fill="#fa6729"/>
    <path id="Контур_354" data-name="Контур 354" d="M347.6,318.784a.881.881,0,0,0-.623,1.079l.456,1.7a.881.881,0,0,0,1.7-.456l-.456-1.7A.881.881,0,0,0,347.6,318.784Z" transform="translate(-326.575 -300.041)" fill="#ff1ca2"/>
    <path id="Контур_355" data-name="Контур 355" d="M137.066,127.767l-1.7-.456a.881.881,0,1,0-.456,1.7l1.7.456a.881.881,0,0,0,.456-1.7Z" transform="translate(-126.373 -119.808)" fill="#ff1ca2"/>
    <path id="Контур_356" data-name="Контур 356" d="M453.042,213.345a.882.882,0,0,0,.623,1.079l1.7.456a.881.881,0,1,0,.456-1.7l-1.7-.456A.881.881,0,0,0,453.042,213.345Z" transform="translate(-426.417 -200.205)" fill="#fa6729"/>
    <path id="Контур_357" data-name="Контур 357" d="M1.5,288.631a.88.88,0,0,0,1.245,0l11.167-11.166-.265-2.225-2.225-.265L.258,286.141a.88.88,0,0,0,0,1.245Z" transform="translate(0 -258.831)" fill="none" stroke="#12183f" stroke-width="1" opacity="0.2"/>
  </g>
</svg>
