<svg id="Сгруппировать_3901" data-name="Сгруппировать 3901" xmlns="http://www.w3.org/2000/svg" width="34" height="18.308" viewBox="0 0 34 18.308">
  <path id="Контур_9" data-name="Контур 9" d="M367.462,130.423h0a1.308,1.308,0,0,1-1.308,1.308h0a1.308,1.308,0,0,1-1.308-1.308h0a1.308,1.308,0,0,1,1.308-1.308h0A1.308,1.308,0,0,1,367.462,130.423Zm-6.539,3.923h0a1.308,1.308,0,0,0-1.308,1.308h0a1.308,1.308,0,0,0,1.308,1.308h0a1.308,1.308,0,0,0,1.308-1.308h0A1.308,1.308,0,0,0,360.923,134.346Zm2.615,5.231h0a1.308,1.308,0,0,0-1.308,1.308h0a1.308,1.308,0,0,0,1.308,1.308h0a1.308,1.308,0,0,0,1.308-1.308h0A1.308,1.308,0,0,0,363.539,139.577Zm-5.231,5.231h0A1.308,1.308,0,0,0,357,146.115h0a1.308,1.308,0,0,0,1.308,1.308h0a1.308,1.308,0,0,0,1.308-1.308h0A1.308,1.308,0,0,0,358.308,144.807ZM391,138.269a9.154,9.154,0,0,1-9.154,9.154H362.231a1.308,1.308,0,1,1,0-2.615h10.462a1.308,1.308,0,1,0,0-2.615h-5.231a1.308,1.308,0,1,1,0-2.615h2.615a1.308,1.308,0,1,0,0-2.615h-5.231a1.308,1.308,0,0,1,0-2.615h7.846a1.308,1.308,0,1,0,0-2.615h-2.615a1.308,1.308,0,0,1,0-2.615h11.769A9.154,9.154,0,0,1,391,138.269Zm-5.036-2,.828-2.946-1.709,1.709a4.569,4.569,0,1,0,.881,1.237Z" transform="translate(-357 -129.115)" fill="#ff1ca2"/>
  <path id="Контур_10" data-name="Контур 10" d="M561.253,164.514l-5.674,3.859-.006,0-.009.006h0a1.307,1.307,0,1,0,1.834,1.8Z" transform="translate(-531.462 -160.306)" fill="#ff1ca2"/>
</svg>
