<svg xmlns="http://www.w3.org/2000/svg" width="50" height="50" viewBox="0 0 50 50"><g transform="translate(-1420 -482)"><g transform="translate(1420 482)" fill="none" stroke="#0f1841" stroke-width="1" stroke-dasharray="5 6" opacity="0.2"><rect width="50" height="50" rx="8" stroke="none"/><rect x="0.5" y="0.5" width="49" height="49" rx="7.5" fill="none"/></g><g transform="translate(1429.883 491.411)"><path d="M16.151,9.252H3.626A.626.626,0,0,1,3.626,8H16.151a.626.626,0,1,1,0,1.252Z" transform="translate(0.757 2.02)" fill="#0d37bc"/><path d="M11.141,13.252H3.626a.626.626,0,1,1,0-1.252h7.515a.626.626,0,0,1,0,1.252Z" transform="translate(0.757 3.029)" fill="#111742" opacity="0.2"/><path d="M9.888,5.252H3.626A.626.626,0,1,1,3.626,4H9.888a.626.626,0,1,1,0,1.252Z" transform="translate(0.757 1.01)" fill="#0d37bc"/><path d="M340.042,9.015V5.04h-1.987V9.015H334.08V11h3.975v3.975h1.987V11h3.975V9.015Z" transform="translate(-317.54 11.192)" fill="#0d37bc"/></g></g></svg>