<svg xmlns="http://www.w3.org/2000/svg" width="22.719" height="21.159" viewBox="0 0 22.719 21.159">
  <g id="_004-add" data-name="004-add" transform="translate(-3.757 -5.01)">
    <path id="Контур_345" data-name="Контур 345" d="M16.151,9.252H3.626A.626.626,0,0,1,3.626,8H16.151a.626.626,0,1,1,0,1.252Z" transform="translate(0.757 2.02)" fill="#0d37bc"/>
    <path id="Контур_346" data-name="Контур 346" d="M11.141,13.252H3.626a.626.626,0,1,1,0-1.252h7.515a.626.626,0,0,1,0,1.252Z" transform="translate(0.757 3.029)" fill="#111742" opacity="0.2"/>
    <path id="Контур_347" data-name="Контур 347" d="M9.888,5.252H3.626A.626.626,0,1,1,3.626,4H9.888a.626.626,0,1,1,0,1.252Z" transform="translate(0.757 1.01)" fill="#0d37bc"/>
    <path id="Контур_362" data-name="Контур 362" d="M340.042,9.015V5.04h-1.987V9.015H334.08V11h3.975v3.975h1.987V11h3.975V9.015Z" transform="translate(-317.54 11.192)" fill="#0d37bc"/>
  </g>
</svg>
