<svg xmlns="http://www.w3.org/2000/svg" width="80.001" height="80.001" viewBox="0 0 80.001 80.001"><path d="M-8859,11205a39.749,39.749,0,0,1-15.57-3.144,39.887,39.887,0,0,1-12.716-8.572,39.887,39.887,0,0,1-8.572-12.716A39.749,39.749,0,0,1-8899,11165a39.741,39.741,0,0,1,3.144-15.569,39.877,39.877,0,0,1,8.572-12.715,39.879,39.879,0,0,1,12.716-8.571A39.749,39.749,0,0,1-8859,11125a39.741,39.741,0,0,1,15.569,3.144,39.864,39.864,0,0,1,12.715,8.571,39.864,39.864,0,0,1,8.571,12.715A39.741,39.741,0,0,1-8819,11165a39.749,39.749,0,0,1-3.144,15.57,39.879,39.879,0,0,1-8.571,12.716,39.877,39.877,0,0,1-12.715,8.572A39.741,39.741,0,0,1-8859,11205Zm-4-49.706a3.007,3.007,0,0,0-3,3v13.4a3.01,3.01,0,0,0,3.006,3.006,2.983,2.983,0,0,0,1.538-.433l11.17-6.7a2.975,2.975,0,0,0,1.455-2.572,2.974,2.974,0,0,0-1.455-2.571l-11.17-6.7A2.947,2.947,0,0,0-8863,11155.295Z" transform="translate(8899.001 -11125)" fill="#0d37bc"/></svg>