<svg id="_002-log-in" data-name="002-log-in" xmlns="http://www.w3.org/2000/svg" width="50" height="50" viewBox="0 0 50 50">
  <path id="Контур_337" data-name="Контур 337" d="M36.8.031c-.052,0-.1-.031-.15-.031H14.25A6.258,6.258,0,0,0,8,6.25V8.333a2.083,2.083,0,1,0,4.167,0V6.25A2.087,2.087,0,0,1,14.25,4.167h9.706l-.635.213A4.188,4.188,0,0,0,20.5,8.333v31.25H14.25A2.087,2.087,0,0,1,12.167,37.5V33.333a2.083,2.083,0,1,0-4.167,0V37.5a6.258,6.258,0,0,0,6.25,6.25H20.5v2.083A4.171,4.171,0,0,0,24.667,50a4.379,4.379,0,0,0,1.327-.206L38.51,45.621a4.187,4.187,0,0,0,2.823-3.954V4.167A4.174,4.174,0,0,0,36.8.031Z" transform="translate(8.667)" fill="#111742"/>
  <path id="Контур_338" data-name="Контур 338" d="M22.306,13.944,13.973,5.611a2.083,2.083,0,0,0-3.556,1.473v6.25H2.083a2.083,2.083,0,1,0,0,4.167h8.333v6.25a2.083,2.083,0,0,0,3.556,1.473l8.333-8.333a2.081,2.081,0,0,0,0-2.946Z" transform="translate(0 5.416)" fill="#ff1ca2"/>
</svg>
