<svg xmlns="http://www.w3.org/2000/svg" xmlns:xlink="http://www.w3.org/1999/xlink" width="57.145" height="30.77" viewBox="0 0 57.145 30.77">
  <defs>
    <linearGradient id="linear-gradient" y1="0.5" x2="1" y2="0.5" gradientUnits="objectBoundingBox">
      <stop offset="0" stop-color="#f701a5"/>
      <stop offset="1" stop-color="#0076ff"/>
    </linearGradient>
  </defs>
  <g id="Сгруппировать_3" data-name="Сгруппировать 3" transform="translate(-357 -129.115)">
    <path id="Контур_9" data-name="Контур 9" d="M374.583,131.313h0a2.2,2.2,0,0,1-2.2,2.2h0a2.2,2.2,0,0,1-2.2-2.2h0a2.2,2.2,0,0,1,2.2-2.2h0A2.2,2.2,0,0,1,374.583,131.313Zm-10.989,6.594h0a2.2,2.2,0,0,0-2.2,2.2h0a2.2,2.2,0,0,0,2.2,2.2h0a2.2,2.2,0,0,0,2.2-2.2h0A2.2,2.2,0,0,0,363.594,137.907Zm4.4,8.792h0a2.2,2.2,0,0,0-2.2,2.2h0a2.2,2.2,0,0,0,2.2,2.2h0a2.2,2.2,0,0,0,2.2-2.2h0A2.2,2.2,0,0,0,367.989,146.7ZM359.2,155.49h0a2.2,2.2,0,0,0-2.2,2.2h0a2.2,2.2,0,0,0,2.2,2.2h0a2.2,2.2,0,0,0,2.2-2.2h0A2.2,2.2,0,0,0,359.2,155.49ZM414.145,144.5a15.385,15.385,0,0,1-15.385,15.385H365.792a2.2,2.2,0,0,1,0-4.4h17.583a2.2,2.2,0,0,0,0-4.4h-8.792a2.2,2.2,0,1,1,0-4.4h4.4a2.2,2.2,0,0,0,0-4.4h-8.792a2.2,2.2,0,0,1,0-4.4h13.187a2.2,2.2,0,0,0,0-4.4h-4.4a2.2,2.2,0,0,1,0-4.4H398.76A15.385,15.385,0,0,1,414.145,144.5Zm-8.464-3.361,1.391-4.951-2.873,2.873a7.679,7.679,0,1,0,1.481,2.078Z" fill="url(#linear-gradient)"/>
    <path id="Контур_10" data-name="Контур 10" d="M565.51,164.514,555.974,171l-.01.007-.016.011h0a2.2,2.2,0,1,0,3.083,3.017Z" transform="translate(-158.438 -28.326)" fill="#1b30c0"/>
  </g>
</svg>
