<svg xmlns="http://www.w3.org/2000/svg" width="51.041" height="50" viewBox="0 0 51.041 50">
  <g id="_001-user" data-name="001-user" transform="translate(0 -5.04)">
    <g id="Сгруппировать_3665" data-name="Сгруппировать 3665" transform="translate(34.512 5.04)">
      <g id="Сгруппировать_3664" data-name="Сгруппировать 3664">
        <path id="Контур_335" data-name="Контур 335" d="M344,11.652V5.04h-3.306v6.612H334.08v3.306h6.612v6.612H344V14.957h6.612V11.652Z" transform="translate(-334.08 -5.04)" fill="#ff1ca2"/>
      </g>
    </g>
    <g id="Сгруппировать_3667" data-name="Сгруппировать 3667" transform="translate(0 8.346)">
      <g id="Сгруппировать_3666" data-name="Сгруппировать 3666">
        <path id="Контур_336" data-name="Контур 336" d="M38.446,70.528a22.331,22.331,0,0,0,2.678-10.347,11.57,11.57,0,0,0-9.917-11.438V48.61a11.57,11.57,0,0,0-23.14,0,22.33,22.33,0,0,0,2.661,10.314A15.322,15.322,0,0,0,0,66.676l2.893,1.653a12.215,12.215,0,0,1,9.917-6.347,9.322,9.322,0,0,0,5.752,3.124,21.7,21.7,0,0,0,2.066,5.471A15.719,15.719,0,0,0,8.066,82.924l3.306.793A12.661,12.661,0,0,1,22.81,73.5a9.107,9.107,0,0,0,6.744,3.207A9.108,9.108,0,0,0,36.347,73.5c7.455.727,10.347,5.851,11.438,10.231l3.256-.81A15.719,15.719,0,0,0,38.446,70.528ZM17.983,60.544a7.342,7.342,0,0,0,.1,1.455c-4.182-1.339-6.959-7.686-6.959-13.471a8.587,8.587,0,1,1,17.174,0v.132A12.033,12.033,0,0,0,17.983,60.544Zm11.57,13.273v-.05c-5.058,0-8.579-7.24-8.579-13.736a8.579,8.579,0,0,1,17.157,0C38.132,66.577,34.612,73.817,29.554,73.817Z" transform="translate(0 -37.04)" fill="#111742"/>
      </g>
    </g>
  </g>
</svg>
