<svg id="_004-add" data-name="004-add" xmlns="http://www.w3.org/2000/svg" width="44.042" height="43.75" viewBox="0 0 44.042 43.75">
  <path id="Контур_344" data-name="Контур 344" d="M18.792,43.75H5.208A5.214,5.214,0,0,1,0,38.542V5.208A5.214,5.214,0,0,1,5.208,0h25a5.214,5.214,0,0,1,5.208,5.208V17.833a1.042,1.042,0,1,1-2.083,0V5.208a3.129,3.129,0,0,0-3.125-3.125h-25A3.129,3.129,0,0,0,2.083,5.208V38.542a3.129,3.129,0,0,0,3.125,3.125H18.792a1.042,1.042,0,0,1,0,2.083Z" transform="translate(0)" fill="#111742"/>
  <path id="Контур_345" data-name="Контур 345" d="M24.875,10.083H4.042A1.042,1.042,0,0,1,4.042,8H24.875a1.042,1.042,0,1,1,0,2.083Z" transform="translate(3.25 8.667)" fill="#ff1ca2"/>
  <path id="Контур_346" data-name="Контур 346" d="M16.542,14.083H4.042a1.042,1.042,0,1,1,0-2.083h12.5a1.042,1.042,0,0,1,0,2.083Z" transform="translate(3.25 13)" fill="#111742"/>
  <path id="Контур_347" data-name="Контур 347" d="M14.458,6.083H4.042A1.042,1.042,0,1,1,4.042,4H14.458a1.042,1.042,0,1,1,0,2.083Z" transform="translate(3.25 4.333)" fill="#ff1ca2"/>
  <path id="Контур_362" data-name="Контур 362" d="M344,11.652V5.04h-3.306v6.612H334.08v3.306h6.612v6.612H344V14.957h6.612V11.652Z" transform="translate(-306.567 21.96)" fill="#111742"/>
</svg>
